<?xml version="1.0" encoding="utf-8"?>
<!-- Generator: Adobe Illustrator 24.3.0, SVG Export Plug-In . SVG Version: 6.00 Build 0)  -->
<svg version="1.1" id="Слой_1" xmlns="http://www.w3.org/2000/svg" xmlns:xlink="http://www.w3.org/1999/xlink" x="0px" y="0px"
	 viewBox="0 0 16 16" style="enable-background:new 0 0 16 16;" xml:space="preserve">
<style type="text/css">
	.st0{fill:#E04300;}
	.st1{fill:#FFFFFF;}
</style>
<path class="st0" d="M8,0C5.9,0,3.8,0.8,2.3,2.3S0,5.9,0,8s0.8,4.2,2.3,5.7S5.9,16,8,16s4.2-0.8,5.7-2.3S16,10.1,16,8
	s-0.8-4.2-2.3-5.7S10.1,0,8,0L8,0z"/>
<path class="st1" d="M3.6,8.5C3.5,8.4,3.3,8.3,3.3,7.8c0.1-0.4,0.2-0.6,0.5-0.7C3.6,7,3.6,6.8,3.7,6.6c0.1-0.4,0.4-0.6,0.6-0.7
	c-0.1-0.2-0.1-0.3,0-0.6s0.4-0.4,1.1-0.4l2.9,0c1,0,1.5,0.6,1.6,1l0,2.3c0,1.2-1.4,2.3-1.5,3.1l0.1,1c0,0.1,0,0.2-0.1,0.3
	c-0.1,0.1-0.3,0.1-0.6,0.2c-0.2,0-0.4-0.1-0.5-0.1c-0.6-0.3-0.7-0.9-0.7-1.6c0.1-0.3,0.4-1,0.4-1.3c0,0-0.8,0.2-1.9,0.2
	C4,10.1,3.3,9.9,3.3,9.2C3.3,8.9,3.5,8.7,3.6,8.5L3.6,8.5z M12.2,8.9l-0.8,0c-0.2,0-0.3-0.1-0.4-0.2c-0.1-0.1-0.2-0.2-0.1-0.4
	l-0.1-3.8c0-0.2,0.1-0.3,0.2-0.4C11,4,11.2,3.9,11.4,4l0.8-0.1c0.2,0,0.3,0.1,0.4,0.2c0.1,0.1,0.2,0.2,0.1,0.4l0,3.8
	c0,0.2-0.1,0.3-0.2,0.4C12.5,8.8,12.3,8.9,12.2,8.9L12.2,8.9z"/>
</svg>
