<?xml version="1.0" encoding="utf-8"?>
<!-- Generator: Adobe Illustrator 24.3.0, SVG Export Plug-In . SVG Version: 6.00 Build 0)  -->
<svg version="1.1" id="Слой_1" xmlns="http://www.w3.org/2000/svg" xmlns:xlink="http://www.w3.org/1999/xlink" x="0px" y="0px"
	 viewBox="0 0 16 16" style="enable-background:new 0 0 16 16;" xml:space="preserve">
<style type="text/css">
	.st0{fill:url(#SVGID_1_);}
	.st1{fill:#FFFFFF;}
</style>
<linearGradient id="SVGID_1_" gradientUnits="userSpaceOnUse" x1="8" y1="15.8898" x2="8" y2="-0.1102" gradientTransform="matrix(1 0 0 -1 0 15.8898)">
	<stop  offset="0" style="stop-color:#18AFFF"/>
	<stop  offset="1" style="stop-color:#0062DF"/>
</linearGradient>
<path class="st0" d="M8,0C5.9,0,3.8,0.8,2.3,2.3C0.8,3.8,0,5.9,0,8c0,2.1,0.8,4.2,2.3,5.7C3.8,15.2,5.9,16,8,16
	c2.1,0,4.2-0.8,5.7-2.3C15.2,12.2,16,10.1,16,8c0-2.1-0.8-4.2-2.3-5.7C12.2,0.8,10.1,0,8,0L8,0z"/>
<path class="st1" d="M12.2,7.3c0.2,0.1,0.3,0.2,0.3,0.7c0,0.4-0.2,0.6-0.5,0.7c0.1,0.2,0.1,0.4,0.1,0.5c-0.1,0.3-0.4,0.6-0.7,0.7
	c0.1,0.2,0.2,0.4,0,0.6c-0.2,0.3-0.3,0.4-1.1,0.4l-2.9,0c-1,0-1.5-0.5-1.5-1V7.7c0-1.2,1.5-2.3,1.5-3.1L7.4,3.5c0-0.1,0-0.2,0.1-0.3
	C7.6,3.1,7.8,3,8.1,3c0.2,0,0.4,0,0.5,0.1c0.6,0.3,0.7,1,0.7,1.5C9.4,4.9,9,5.7,8.9,6c0,0,0.9-0.2,1.9-0.2c1.1,0,1.7,0.2,1.7,0.8
	C12.5,6.9,12.3,7.2,12.2,7.3L12.2,7.3z M3.7,7h0.8c0.2,0,0.3,0.1,0.4,0.2C5,7.3,5.1,7.4,5.1,7.6v3.8c0,0.2-0.1,0.3-0.2,0.4
	C4.8,11.9,4.6,12,4.5,12H3.7c-0.2,0-0.3-0.1-0.4-0.2c-0.1-0.1-0.2-0.3-0.2-0.4l0-3.8c0-0.2,0.1-0.3,0.2-0.4C3.3,7.1,3.5,7,3.7,7
	L3.7,7z"/>
</svg>
